<?xml version="1.0" encoding="UTF-8" standalone="no"?>
<!-- Created with Inkscape (http://www.inkscape.org/) -->

<svg
   width="70.637596mm"
   height="12.245972mm"
   viewBox="0 0 70.637596 12.245972"
   version="1.1"
   id="svg1"
   inkscape:version="1.3.2 (091e20e, 2023-11-25, custom)"
   sodipodi:docname="Nelson Captures.svg"
   xmlns:inkscape="http://www.inkscape.org/namespaces/inkscape"
   xmlns:sodipodi="http://sodipodi.sourceforge.net/DTD/sodipodi-0.dtd"
   xmlns="http://www.w3.org/2000/svg"
   xmlns:svg="http://www.w3.org/2000/svg">
  <sodipodi:namedview
     id="namedview1"
     pagecolor="#ffffff"
     bordercolor="#000000"
     borderopacity="0.25"
     inkscape:showpageshadow="2"
     inkscape:pageopacity="0.0"
     inkscape:pagecheckerboard="true"
     inkscape:deskcolor="#d1d1d1"
     inkscape:document-units="mm"
     inkscape:zoom="4.5178449"
     inkscape:cx="103.36787"
     inkscape:cy="112.11098"
     inkscape:window-width="3840"
     inkscape:window-height="2054"
     inkscape:window-x="-11"
     inkscape:window-y="-11"
     inkscape:window-maximized="1"
     inkscape:current-layer="layer1" />
  <defs
     id="defs1" />
  <g
     inkscape:label="Layer 1"
     inkscape:groupmode="layer"
     id="layer1"
     transform="translate(-27.634131,-56.142656)">
    <path
       style="font-size:11.6204px;font-family:Cormorant;-inkscape-font-specification:'Cormorant, Normal';fill:#dad3b0;stroke-width:3.7954;stroke-linecap:round;stroke-linejoin:round"
       d="m 30.074658,60.432839 v -5.728857 l 0.267269,0.02324 v 5.705616 q 0,0.604261 0.209168,0.87153 0.209167,0.255649 0.697224,0.255649 0.03486,0 0.03486,0.06972 0,0.06972 -0.03486,0.06972 -0.232408,0 -0.476437,-0.01162 -0.244028,-0.01162 -0.546159,-0.01162 -0.29051,0 -0.557779,0.01162 -0.267269,0.01162 -0.511297,0.01162 -0.02324,0 -0.02324,-0.06972 0,-0.06972 0.02324,-0.06972 0.511297,0 0.708844,-0.255649 0.209167,-0.267269 0.209167,-0.87153 z m 5.856682,1.406069 q 0,0.02324 -0.0581,0.02324 -0.0581,0.01162 -0.08134,0 l -5.345384,-6.472563 q -0.395094,-0.476436 -0.708844,-0.639122 -0.302131,-0.174306 -0.58102,-0.174306 -0.03486,0 -0.03486,-0.06972 0,-0.06972 0.03486,-0.06972 0.209167,0 0.418334,0.01162 0.220788,0.01162 0.395094,0.01162 0.209167,0 0.395093,-0.01162 0.185927,-0.01162 0.27889,-0.01162 0.151065,0 0.209167,0.139444 0.0581,0.127825 0.336992,0.464816 l 4.64816,5.705617 z m 0,-6.123951 v 6.123951 l -0.267269,-0.360233 v -5.763718 q 0,-0.604261 -0.209167,-0.87153 -0.197547,-0.26727 -0.673984,-0.26727 -0.02324,0 -0.02324,-0.06972 0,-0.06972 0.02324,-0.06972 0.232408,0 0.476437,0.02324 0.255649,0.01162 0.546159,0.01162 0.278889,0 0.546158,-0.01162 0.27889,-0.02324 0.511298,-0.02324 0.03486,0 0.03486,0.06972 0,0.06972 -0.03486,0.06972 -0.499677,0 -0.720465,0.26727 -0.209167,0.267269 -0.209167,0.87153 z m 3.799863,6.123951 q -0.720465,0 -1.208522,-0.313751 -0.488057,-0.325371 -0.732085,-0.836669 -0.244029,-0.511298 -0.244029,-1.080697 0,-0.708845 0.325372,-1.266624 0.336991,-0.569399 0.89477,-0.894771 0.5694,-0.336991 1.278244,-0.336991 0.639122,0 0.976114,0.313751 0.348612,0.30213 0.348612,0.836668 0,0.127825 -0.02324,0.197547 -0.02324,0.06972 -0.116204,0.06972 h -0.673983 q 0.04648,-0.5694 -0.209167,-0.87153 -0.244029,-0.313751 -0.697224,-0.313751 -0.650743,0 -0.999355,0.488057 -0.336991,0.488056 -0.336991,1.324725 0,0.662363 0.209167,1.173661 0.220788,0.511297 0.627502,0.813428 0.418334,0.29051 0.987734,0.29051 0.30213,0 0.615881,-0.09296 0.313751,-0.09296 0.59264,-0.29051 0.02324,-0.02324 0.0581,0.03486 0.04648,0.04648 0.02324,0.08134 -0.418334,0.360233 -0.836669,0.522918 -0.418334,0.151066 -0.859909,0.151066 z m -1.626856,-3.288574 -0.01162,-0.151065 2.649451,-0.0581 v 0.185927 z m 4.229837,3.149129 q -0.03486,0 -0.03486,-0.06972 0,-0.06972 0.03486,-0.06972 0.453195,0 0.59264,-0.151065 0.139445,-0.162686 0.139445,-0.650743 v -6.007747 q 0,-0.406714 -0.08134,-0.59264 -0.08134,-0.197547 -0.29051,-0.197547 -0.174306,0 -0.534538,0.162686 -0.03486,0.02324 -0.06972,-0.04648 -0.03486,-0.06972 0.01162,-0.08134 l 1.487411,-0.708844 q 0.02324,-0.01162 0.0581,-0.01162 0.02324,0 0.0581,0.03486 0.04648,0.02324 0.04648,0.0581 v 7.390574 q 0,0.488057 0.127825,0.650743 0.127824,0.151065 0.59264,0.151065 0.03486,0 0.03486,0.06972 0,0.06972 -0.03486,0.06972 -0.197547,0 -0.476436,-0.01162 -0.27889,-0.01162 -0.592641,-0.01162 -0.30213,0 -0.59264,0.01162 -0.27889,0.01162 -0.476436,0.01162 z m 3.69528,-3.77663 q 0,0.30213 0.151065,0.511297 0.162686,0.209168 0.395094,0.360233 0.244028,0.139445 0.511297,0.278889 0.302131,0.151066 0.5694,0.325372 0.267269,0.162685 0.441575,0.406714 0.174306,0.232408 0.174306,0.615881 0,0.371853 -0.185926,0.697224 -0.185926,0.313751 -0.557779,0.511297 -0.360233,0.197547 -0.894771,0.197547 -0.29051,0 -0.557779,-0.08134 -0.26727,-0.06972 -0.55778,-0.267269 -0.02324,-0.02324 -0.04648,-0.0581 -0.02324,-0.03486 -0.02324,-0.08134 l -0.02324,-0.906391 q 0,-0.03486 0.0581,-0.03486 0.06972,-0.01162 0.08134,0.02324 0.139445,0.395093 0.348612,0.662363 0.209167,0.255648 0.476436,0.395093 0.26727,0.127825 0.5694,0.127825 0.371853,0 0.5694,-0.185927 0.209167,-0.185926 0.197547,-0.546159 -0.01162,-0.336991 -0.174306,-0.546158 -0.162686,-0.209168 -0.406715,-0.348612 -0.232408,-0.151066 -0.488056,-0.27889 -0.29051,-0.139445 -0.55778,-0.29051 -0.255648,-0.162686 -0.429954,-0.406714 -0.162686,-0.244028 -0.162686,-0.639122 0,-0.453196 0.232408,-0.732085 0.232408,-0.29051 0.59264,-0.418335 0.360233,-0.139444 0.755326,-0.139444 0.220788,0 0.429955,0.03486 0.209168,0.03486 0.418335,0.139445 0.104583,0.03486 0.104583,0.127824 0,0.185926 -0.01162,0.395094 -0.01162,0.197546 -0.01162,0.453195 0,0.02324 -0.06972,0.02324 -0.06972,0 -0.06972,-0.02324 0,-0.267269 -0.185927,-0.476436 -0.185926,-0.209167 -0.464816,-0.325371 -0.278889,-0.127825 -0.557779,-0.127825 -0.27889,0 -0.464816,0.151065 -0.174306,0.151066 -0.174306,0.476437 z m 5.449959,3.927695 q -0.685603,0 -1.196901,-0.336992 -0.511298,-0.336991 -0.790187,-0.89477 -0.27889,-0.5694 -0.27889,-1.220142 0,-0.604261 0.220788,-1.045836 0.220787,-0.441576 0.59264,-0.720465 0.371853,-0.29051 0.801808,-0.429955 0.441575,-0.139445 0.859909,-0.139445 0.708845,0 1.208522,0.348612 0.511298,0.348612 0.778567,0.894771 0.267269,0.546159 0.267269,1.15042 0,0.743705 -0.336992,1.278244 -0.336991,0.534538 -0.89477,0.825048 -0.55778,0.29051 -1.231763,0.29051 z m 0.336992,-0.220788 q 0.615881,0 0.976113,-0.429954 0.360233,-0.441576 0.360233,-1.417689 0,-0.732085 -0.244029,-1.289865 -0.232408,-0.569399 -0.650742,-0.88315 -0.418334,-0.325371 -0.952873,-0.325371 -0.615881,0 -0.964493,0.453195 -0.348612,0.453196 -0.348612,1.301485 0,0.708845 0.232408,1.301485 0.232408,0.59264 0.639122,0.941252 0.418334,0.348612 0.952873,0.348612 z m 6.193675,0.06972 q -0.03486,0 -0.03486,-0.06972 0,-0.06972 0.03486,-0.06972 0.453196,0 0.58102,-0.151065 0.139445,-0.162686 0.139445,-0.650743 v -1.882504 q 0,-0.697224 -0.255649,-1.010975 -0.255649,-0.325371 -0.813428,-0.325371 -0.418334,0 -0.85991,0.267269 -0.441575,0.267269 -0.755326,0.732085 l -0.04648,-0.139445 q 0.511297,-0.685603 1.010975,-1.010975 0.511297,-0.325371 1.034215,-0.325371 0.639122,0 0.987734,0.360233 0.360233,0.348612 0.360233,1.057456 v 2.277598 q 0,0.488057 0.127824,0.650743 0.139445,0.151065 0.59264,0.151065 0.03486,0 0.03486,0.06972 0,0.06972 -0.03486,0.06972 -0.197546,0 -0.476436,-0.01162 -0.267269,-0.01162 -0.5694,-0.01162 -0.30213,0 -0.58102,0.01162 -0.278889,0.01162 -0.476436,0.01162 z m -3.125888,0 q -0.03486,0 -0.03486,-0.06972 0,-0.06972 0.03486,-0.06972 0.453196,0 0.58102,-0.151065 0.139445,-0.162686 0.139445,-0.650743 v -2.300839 q 0,-0.383473 -0.09296,-0.557779 -0.08134,-0.185926 -0.313751,-0.185926 -0.116204,0 -0.27889,0.04648 -0.151065,0.04648 -0.348612,0.127825 -0.04648,0.01162 -0.08134,-0.04648 -0.02324,-0.0581 0.02324,-0.08134 l 1.347967,-0.639122 q 0.03486,-0.01162 0.06972,-0.01162 0.08134,0 0.209168,0.244028 0.127824,0.244029 0.127824,0.708845 v 2.695932 q 0,0.488057 0.127824,0.650743 0.139445,0.151065 0.592641,0.151065 0.03486,0 0.03486,0.06972 0,0.06972 -0.03486,0.06972 -0.197547,0 -0.476437,-0.01162 -0.267269,-0.01162 -0.569399,-0.01162 -0.302131,0 -0.58102,0.01162 -0.27889,0.01162 -0.476437,0.01162 z m 13.026464,-7.390575 q 0.534538,0 1.103938,0.104584 0.58102,0.104583 0.929632,0.30213 0.104583,0.0581 0.127824,0.104584 0.03486,0.04648 0.04648,0.174306 l 0.127824,1.301485 q 0,0.02324 -0.0581,0.04648 -0.0581,0.01162 -0.06972,-0.03486 -0.267269,-0.941252 -0.976114,-1.336346 -0.708844,-0.406714 -1.684958,-0.406714 -0.894771,0 -1.557133,0.395094 -0.650743,0.383473 -1.010975,1.092317 -0.360233,0.697224 -0.360233,1.638477 0,0.825048 0.255649,1.557133 0.255649,0.720465 0.708845,1.266624 0.464816,0.546159 1.057456,0.85991 0.604261,0.30213 1.278244,0.30213 0.813428,0 1.429309,-0.441575 0.627502,-0.453196 0.964493,-1.429309 0.01162,-0.04648 0.06972,-0.02324 0.06972,0.01162 0.06972,0.03486 l -0.162685,1.313105 q -0.02324,0.139445 -0.0581,0.185927 -0.02324,0.03486 -0.127825,0.08134 -0.557779,0.232408 -1.103938,0.336992 -0.546159,0.104584 -1.103938,0.104584 -1.103938,0 -1.894125,-0.336992 -0.790187,-0.348612 -1.289865,-0.906391 -0.499677,-0.5694 -0.732085,-1.243383 -0.232408,-0.685604 -0.232408,-1.347966 0,-0.836669 0.348612,-1.510653 0.348612,-0.673983 0.952873,-1.16204 0.604261,-0.488056 1.359587,-0.755326 0.766946,-0.267269 1.591995,-0.267269 z m 6.600395,7.460297 q -0.04648,0.02324 -0.09296,0.02324 -0.151066,0 -0.29051,-0.244028 -0.139445,-0.255649 -0.139445,-0.732086 v -2.080051 q 0,-0.546159 -0.104584,-0.848289 -0.09296,-0.302131 -0.267269,-0.418335 -0.162686,-0.116204 -0.371853,-0.116204 -0.29051,0 -0.476436,0.151065 -0.185927,0.139445 -0.27889,0.360233 -0.09296,0.220787 -0.127824,0.441575 -0.01162,0.162686 -0.104584,0.30213 -0.08134,0.139445 -0.325371,0.139445 -0.185926,0 -0.29051,-0.09296 -0.104584,-0.09296 -0.104584,-0.255649 0,-0.209167 0.209168,-0.429955 0.209167,-0.232408 0.522918,-0.418334 0.325371,-0.197547 0.673983,-0.313751 0.360232,-0.127824 0.673983,-0.127824 0.441575,0 0.732085,0.313751 0.29051,0.30213 0.29051,0.964493 v 2.056811 q 0,0.406714 0.104584,0.59264 0.104583,0.185926 0.336991,0.185926 0.209168,0 0.58102,-0.151065 0.0581,-0.02324 0.08134,0.04648 0.02324,0.0581 -0.03486,0.08134 z m -2.277599,0.01162 q -0.371852,0 -0.557779,-0.197547 -0.185926,-0.209167 -0.185926,-0.476437 0,-0.325371 0.255649,-0.511297 0.255648,-0.197547 0.836668,-0.395094 l 1.522273,-0.546159 0.03486,0.127825 -1.347966,0.511297 q -0.26727,0.104584 -0.383474,0.232408 -0.104583,0.127825 -0.104583,0.325372 0,0.244028 0.139445,0.383473 0.139444,0.127824 0.360232,0.127824 0.127824,0 0.244028,-0.02324 0.116204,-0.03486 0.232408,-0.09296 l 0.987734,-0.499677 0.02324,0.139445 -1.010975,0.546159 q -0.348612,0.174306 -0.58102,0.267269 -0.232408,0.08134 -0.464816,0.08134 z m 3.8696,3.114267 q -0.03486,0 -0.03486,-0.06972 0,-0.06972 0.03486,-0.06972 0.453195,0 0.59264,-0.151065 0.139445,-0.151065 0.139445,-0.650742 v -5.461589 q 0,-0.406714 -0.09296,-0.59264 -0.09296,-0.185926 -0.325372,-0.185926 -0.116204,0 -0.278889,0.04648 -0.151065,0.03486 -0.336992,0.116204 -0.04648,0.02324 -0.08134,-0.03486 -0.03486,-0.06972 0.01162,-0.09296 l 1.289864,-0.615881 q 0.03486,-0.01162 0.08134,-0.01162 0.162686,0 0.267269,0.267269 0.116204,0.255649 0.116204,0.766947 v 5.79858 q 0,0.325371 0.08134,0.499677 0.09296,0.174306 0.336992,0.232408 0.255648,0.06972 0.743705,0.06972 0.02324,0 0.02324,0.06972 0,0.06972 -0.02324,0.06972 -0.30213,0 -0.685603,-0.01162 -0.371853,-0.01162 -0.790188,-0.01162 -0.30213,0 -0.59264,0.01162 -0.27889,0.01162 -0.476436,0.01162 z m 2.61459,-3.044545 q -0.441576,0 -0.778567,-0.104584 -0.336992,-0.104583 -0.755326,-0.395093 l 0.162685,-0.639122 q 0.325372,0.383473 0.708845,0.639122 0.383473,0.255649 1.010975,0.255649 0.604261,0 0.999354,-0.534539 0.406714,-0.534538 0.406714,-1.510652 0,-1.010975 -0.441575,-1.533893 -0.441575,-0.522918 -1.080697,-0.522918 -0.511298,0 -0.906392,0.29051 -0.383473,0.27889 -0.755326,0.673984 l -0.09296,-0.09296 q 0.592641,-0.685603 1.138799,-0.999354 0.546159,-0.313751 1.103939,-0.313751 0.476436,0 0.88315,0.255649 0.406714,0.244028 0.650742,0.720465 0.244029,0.476436 0.244029,1.16204 0,0.708844 -0.244029,1.208521 -0.232408,0.499678 -0.627501,0.825049 -0.383473,0.313751 -0.813428,0.464816 -0.429955,0.151065 -0.813428,0.151065 z m 5.136215,-0.01162 q -0.27889,0 -0.534539,-0.09296 -0.255649,-0.08134 -0.418334,-0.29051 -0.162686,-0.209167 -0.162686,-0.569399 v -2.730794 q 0,-0.27889 -0.03486,-0.418335 -0.03486,-0.139444 -0.162686,-0.174306 -0.127824,-0.04648 -0.395093,-0.04648 -0.04648,0 -0.04648,-0.06972 0,-0.08134 0.04648,-0.08134 0.464816,-0.01162 0.755326,-0.255649 0.30213,-0.244029 0.336991,-0.627502 0,-0.03486 0.08134,-0.03486 0.09296,0 0.09296,0.03486 v 4.009038 q 0,0.476437 0.232408,0.708845 0.244029,0.232408 0.685604,0.232408 0.302131,0 0.534539,-0.09296 0.244028,-0.104583 0.395093,-0.232408 0.04648,-0.02324 0.08134,0.03486 0.04648,0.04648 0,0.08134 -0.429955,0.325372 -0.778567,0.476437 -0.336991,0.139445 -0.708844,0.139445 z m 1.127179,-4.05552 q -0.453196,-0.116204 -0.87153,-0.151065 -0.418335,-0.03486 -0.894771,-0.03486 v -0.255649 q 0.464816,0 0.894771,-0.03486 0.429954,-0.03486 0.918011,-0.08134 0.02324,0 0.04648,0.08134 0.03486,0.08134 0.03486,0.197546 0,0.08134 -0.04648,0.185927 -0.03486,0.104583 -0.08134,0.09296 z m 2.730783,4.009038 q -0.5694,0 -0.906391,-0.360232 -0.325371,-0.371853 -0.325371,-1.069077 v -1.777921 q 0,-0.453196 -0.08134,-0.650743 -0.06972,-0.209167 -0.267269,-0.209167 -0.162686,0 -0.395094,0.116204 -0.04648,0.01162 -0.08134,-0.0581 -0.02324,-0.06972 0.02324,-0.08134 l 1.289864,-0.58102 q 0.02324,-0.01162 0.04648,-0.01162 0.03486,0 0.06972,0.03486 0.04648,0.02324 0.04648,0.0581 v 2.777276 q 0,0.685603 0.244028,1.022595 0.244029,0.325371 0.732086,0.325371 0.441575,0 0.88315,-0.267269 0.453196,-0.267269 0.790187,-0.720465 l 0.0581,0.127824 q -0.534538,0.685604 -1.057456,1.010975 -0.511298,0.313751 -1.069077,0.313751 z m 2.498386,-4.590058 v 3.253712 q 0,0.395094 0.09296,0.5694 0.09296,0.174306 0.313751,0.174306 0.116204,0 0.255649,-0.03486 0.151065,-0.04648 0.360232,-0.127824 0.0581,-0.02324 0.08134,0.04648 0.02324,0.0581 -0.02324,0.08134 l -1.359586,0.639122 q -0.02324,0.01162 -0.04648,0.01162 -0.09296,0 -0.209167,-0.244029 -0.116204,-0.255648 -0.116204,-0.720464 v -2.265978 q 0,-0.453196 -0.08134,-0.650743 -0.06972,-0.209167 -0.267269,-0.209167 -0.162686,0 -0.395094,0.116204 -0.04648,0.01162 -0.06972,-0.0581 -0.02324,-0.06972 0.02324,-0.08134 l 1.289864,-0.58102 q 0.02324,-0.01162 0.03486,-0.01162 0.03486,0 0.06972,0.03486 0.04648,0.02324 0.04648,0.0581 z m 2.777277,1.347966 -0.04648,-0.127824 q 0.429955,-0.522918 0.708844,-0.801808 0.27889,-0.29051 0.476437,-0.395093 0.209167,-0.116204 0.395093,-0.116204 0.244029,0 0.476437,0.139445 0.244028,0.139444 0.244028,0.336991 0,0.151065 -0.104584,0.255649 -0.09296,0.104584 -0.278889,0.104584 -0.151065,0 -0.255649,-0.09296 -0.104584,-0.09296 -0.220788,-0.174306 -0.116204,-0.08134 -0.30213,-0.08134 -0.104584,0 -0.220788,0.0581 -0.116204,0.0581 -0.31375,0.267269 -0.197547,0.197547 -0.55778,0.627501 z m -1.138799,3.149129 q -0.03486,0 -0.03486,-0.06972 0,-0.06972 0.03486,-0.06972 0.453196,0 0.58102,-0.151065 0.139445,-0.162686 0.139445,-0.650743 v -2.300839 q 0,-0.383473 -0.09296,-0.557779 -0.08134,-0.185926 -0.313751,-0.185926 -0.116204,0 -0.27889,0.04648 -0.151065,0.04648 -0.348612,0.127825 -0.04648,0.01162 -0.08134,-0.04648 -0.02324,-0.0581 0.02324,-0.08134 l 1.347967,-0.639122 q 0.03486,-0.01162 0.06972,-0.01162 0.08134,0 0.209167,0.244028 0.127825,0.244029 0.127825,0.708845 v 2.695932 q 0,0.325372 0.08134,0.511298 0.08134,0.174306 0.325371,0.232408 0.244028,0.0581 0.720465,0.0581 0.04648,0 0.04648,0.06972 0,0.06972 -0.04648,0.06972 -0.27889,0 -0.662363,-0.01162 -0.371853,-0.01162 -0.790187,-0.01162 -0.302131,0 -0.58102,0.01162 -0.27889,0.01162 -0.476437,0.01162 z m 6.170449,0.139445 q -0.720465,0 -1.208522,-0.313751 -0.488057,-0.325371 -0.732085,-0.836669 -0.244029,-0.511298 -0.244029,-1.080697 0,-0.708845 0.325372,-1.266624 0.336991,-0.569399 0.89477,-0.894771 0.5694,-0.336991 1.278245,-0.336991 0.639122,0 0.976113,0.313751 0.348612,0.30213 0.348612,0.836668 0,0.127825 -0.02324,0.197547 -0.02324,0.06972 -0.116204,0.06972 H 98.84419 q 0.04648,-0.5694 -0.209167,-0.87153 -0.244028,-0.313751 -0.697224,-0.313751 -0.650743,0 -0.999355,0.488057 -0.336991,0.488056 -0.336991,1.324725 0,0.662363 0.209167,1.173661 0.220788,0.511297 0.627502,0.813428 0.418334,0.29051 0.987734,0.29051 0.30213,0 0.615881,-0.09296 0.313751,-0.09296 0.59264,-0.29051 0.02324,-0.02324 0.0581,0.03486 0.04648,0.04648 0.02324,0.08134 -0.418334,0.360233 -0.836669,0.522918 -0.418334,0.151066 -0.859909,0.151066 z m -1.626856,-3.288574 -0.01162,-0.151065 2.649452,-0.0581 v 0.185927 z m 4.927064,-0.627501 q 0,0.30213 0.15106,0.511297 0.16269,0.209168 0.3951,0.360233 0.24402,0.139445 0.51129,0.278889 0.30213,0.151066 0.5694,0.325372 0.26727,0.162685 0.44158,0.406714 0.1743,0.232408 0.1743,0.615881 0,0.371853 -0.18592,0.697224 -0.18593,0.313751 -0.55778,0.511297 -0.36023,0.197547 -0.89477,0.197547 -0.29051,0 -0.55778,-0.08134 -0.26727,-0.06972 -0.55778,-0.267269 -0.0232,-0.02324 -0.0465,-0.0581 -0.0232,-0.03486 -0.0232,-0.08134 l -0.0232,-0.906391 q 0,-0.03486 0.0581,-0.03486 0.0697,-0.01162 0.0813,0.02324 0.13945,0.395093 0.34861,0.662363 0.20917,0.255648 0.47644,0.395093 0.26727,0.127825 0.5694,0.127825 0.37185,0 0.5694,-0.185927 0.20917,-0.185926 0.19755,-0.546159 -0.0116,-0.336991 -0.17431,-0.546158 -0.16269,-0.209168 -0.40671,-0.348612 -0.23241,-0.151066 -0.48806,-0.27889 -0.29051,-0.139445 -0.55778,-0.29051 -0.25565,-0.162686 -0.42996,-0.406714 -0.16268,-0.244028 -0.16268,-0.639122 0,-0.453196 0.23241,-0.732085 0.2324,-0.29051 0.59264,-0.418335 0.36023,-0.139444 0.75532,-0.139444 0.22079,0 0.42996,0.03486 0.20917,0.03486 0.41833,0.139445 0.10459,0.03486 0.10459,0.127824 0,0.185926 -0.0116,0.395094 -0.0116,0.197546 -0.0116,0.453195 0,0.02324 -0.0697,0.02324 -0.0697,0 -0.0697,-0.02324 0,-0.267269 -0.18593,-0.476436 -0.18592,-0.209167 -0.46481,-0.325371 -0.27889,-0.127825 -0.55778,-0.127825 -0.27889,0 -0.46482,0.151065 -0.1743,0.151066 -0.1743,0.476437 z"
       id="text1"
       inkscape:label="text1"
       transform="scale(0.94891611,1.0538339)"
       aria-label="Nelson Captures" />
  </g>
</svg>
